<svg xmlns="http://www.w3.org/2000/svg" version="1.1" xmlns:xlink="http://www.w3.org/1999/xlink" width="200" height="200"><svg xmlns="http://www.w3.org/2000/svg" version="1.1" xmlns:xlink="http://www.w3.org/1999/xlink" width="200" height="200"><svg xmlns="http://www.w3.org/2000/svg" version="1.1" xmlns:xlink="http://www.w3.org/1999/xlink" viewBox="0 0 200 200"><rect width="200" height="200" fill="url('#gradient')"></rect><defs><linearGradient id="gradient" gradientTransform="rotate(45 0.5 0.5)"><stop offset="0%" stop-color="#192025"></stop><stop offset="100%" stop-color="#192025"></stop></linearGradient></defs><g><g fill="#ffffff" transform="matrix(5.4697022767075305,0,0,5.4697022767075305,33.1313281263445,138.8889587841602)" stroke="#c6c6c6" stroke-width="0.3"><path d="M4.50-14.22L4.50-2.64L10.47-2.64L10.47 0L1.07 0L1.07-14.22L4.50-14.22ZM19.71 0L17.20-5.02L15.34-5.02L15.34 0L11.91 0L11.91-14.22L17.51-14.22Q20.04-14.22 21.46-13.10Q22.89-11.97 22.89-9.92L22.89-9.92Q22.89-8.44 22.29-7.46Q21.69-6.48 20.41-5.88L20.41-5.88L23.38-0.15L23.38 0L19.71 0ZM15.34-11.57L15.34-7.67L17.51-7.67Q18.49-7.67 18.98-8.18Q19.47-8.69 19.47-9.61Q19.47-10.53 18.97-11.05Q18.48-11.57 17.51-11.57L17.51-11.57L15.34-11.57Z"></path></g></g></svg></svg><style>@media (prefers-color-scheme: light) { :root { filter: none; } }
@media (prefers-color-scheme: dark) { :root { filter: none; } }
</style></svg>